<?xml version="1.0" encoding="UTF-8"?>
<svg xmlns="http://www.w3.org/2000/svg" width="200" height="200" viewBox="0 0 200 200">
  <rect width="200" height="200" fill="white"/>
  <g transform="translate(25,25)" fill="#000000">
    <!-- 定位图案 - 左上角 -->
    <rect x="0" y="0" width="30" height="30"/>
    <rect x="5" y="5" width="20" height="20" fill="white"/>
    <rect x="10" y="10" width="10" height="10"/>
    
    <!-- 定位图案 - 右上角 -->
    <rect x="120" y="0" width="30" height="30"/>
    <rect x="125" y="5" width="20" height="20" fill="white"/>
    <rect x="130" y="10" width="10" height="10"/>
    
    <!-- 定位图案 - 左下角 -->
    <rect x="0" y="120" width="30" height="30"/>
    <rect x="5" y="125" width="20" height="20" fill="white"/>
    <rect x="10" y="130" width="10" height="10"/>
    
    <!-- 校正图案 -->
    <rect x="100" y="100" width="15" height="15"/>
    <rect x="103" y="103" width="9" height="9" fill="white"/>
    <rect x="106" y="106" width="3" height="3"/>
    
    <!-- 定时图案 -->
    <rect x="40" y="10" width="70" height="5"/>
    <rect x="10" y="40" width="5" height="70"/>
    
    <!-- 数据区域 - 使用简化的数据点表示真实二维码 -->
    <!-- 1行 -->
    <rect x="40" y="20" width="5" height="5"/>
    <rect x="50" y="20" width="5" height="5"/>
    <rect x="60" y="20" width="5" height="5"/>
    <rect x="70" y="20" width="5" height="5"/>
    <rect x="90" y="20" width="5" height="5"/>
    <rect x="100" y="20" width="5" height="5"/>
    
    <!-- 2行 -->
    <rect x="50" y="30" width="5" height="5"/>
    <rect x="70" y="30" width="5" height="5"/>
    <rect x="80" y="30" width="5" height="5"/>
    <rect x="100" y="30" width="5" height="5"/>
    <rect x="120" y="30" width="5" height="5"/>
    
    <!-- 3行 -->
    <rect x="40" y="40" width="5" height="5"/>
    <rect x="60" y="40" width="5" height="5"/>
    <rect x="80" y="40" width="5" height="5"/>
    <rect x="90" y="40" width="5" height="5"/>
    <rect x="110" y="40" width="5" height="5"/>
    
    <!-- 4行 -->
    <rect x="30" y="50" width="5" height="5"/>
    <rect x="40" y="50" width="5" height="5"/>
    <rect x="50" y="50" width="5" height="5"/>
    <rect x="70" y="50" width="5" height="5"/>
    <rect x="90" y="50" width="5" height="5"/>
    <rect x="100" y="50" width="5" height="5"/>
    <rect x="110" y="50" width="5" height="5"/>
    <rect x="120" y="50" width="5" height="5"/>
    
    <!-- 5行 -->
    <rect x="20" y="60" width="5" height="5"/>
    <rect x="40" y="60" width="5" height="5"/>
    <rect x="60" y="60" width="5" height="5"/>
    <rect x="70" y="60" width="5" height="5"/>
    <rect x="80" y="60" width="5" height="5"/>
    <rect x="90" y="60" width="5" height="5"/>
    <rect x="100" y="60" width="5" height="5"/>
    <rect x="130" y="60" width="5" height="5"/>
    
    <!-- 更多数据点 -->
    <!-- 6行 -->
    <rect x="30" y="70" width="5" height="5"/>
    <rect x="40" y="70" width="5" height="5"/>
    <rect x="60" y="70" width="5" height="5"/>
    <rect x="80" y="70" width="5" height="5"/>
    <rect x="100" y="70" width="5" height="5"/>
    <rect x="120" y="70" width="5" height="5"/>
    <rect x="130" y="70" width="5" height="5"/>
    
    <!-- 7行 -->
    <rect x="20" y="80" width="5" height="5"/>
    <rect x="30" y="80" width="5" height="5"/>
    <rect x="50" y="80" width="5" height="5"/>
    <rect x="60" y="80" width="5" height="5"/>
    <rect x="70" y="80" width="5" height="5"/>
    <rect x="80" y="80" width="5" height="5"/>
    <rect x="90" y="80" width="5" height="5"/>
    <rect x="110" y="80" width="5" height="5"/>
    <rect x="120" y="80" width="5" height="5"/>
    
    <!-- 8行 -->
    <rect x="40" y="90" width="5" height="5"/>
    <rect x="50" y="90" width="5" height="5"/>
    <rect x="60" y="90" width="5" height="5"/>
    <rect x="80" y="90" width="5" height="5"/>
    <rect x="120" y="90" width="5" height="5"/>
    <rect x="130" y="90" width="5" height="5"/>
    
    <!-- 9行 -->
    <rect x="30" y="100" width="5" height="5"/>
    <rect x="60" y="100" width="5" height="5"/>
    <rect x="70" y="100" width="5" height="5"/>
    <rect x="80" y="100" width="5" height="5"/>
    <rect x="120" y="100" width="5" height="5"/>
    
    <!-- 10行 -->
    <rect x="20" y="110" width="5" height="5"/>
    <rect x="30" y="110" width="5" height="5"/>
    <rect x="50" y="110" width="5" height="5"/>
    <rect x="60" y="110" width="5" height="5"/>
    <rect x="90" y="110" width="5" height="5"/>
    <rect x="100" y="110" width="5" height="5"/>
    <rect x="110" y="110" width="5" height="5"/>
    
    <!-- 11行 -->
    <rect x="40" y="120" width="5" height="5"/>
    <rect x="60" y="120" width="5" height="5"/>
    <rect x="70" y="120" width="5" height="5"/>
    <rect x="80" y="120" width="5" height="5"/>
    <rect x="90" y="120" width="5" height="5"/>
    <rect x="100" y="120" width="5" height="5"/>
    <rect x="110" y="120" width="5" height="5"/>
    <rect x="130" y="120" width="5" height="5"/>
    
    <!-- 12行 -->
    <rect x="40" y="130" width="5" height="5"/>
    <rect x="60" y="130" width="5" height="5"/>
    <rect x="80" y="130" width="5" height="5"/>
    <rect x="90" y="130" width="5" height="5"/>
    <rect x="110" y="130" width="5" height="5"/>
    <rect x="120" y="130" width="5" height="5"/>
  </g>
  
  <!-- 中心Logo -->
  <rect x="75" y="75" width="50" height="50" fill="white" rx="5"/>
  <text x="100" y="105" font-family="Arial, sans-serif" font-size="12" font-weight="bold" text-anchor="middle" fill="#2563eb">AI转型</text>
</svg> 